<svg width="128" height="128" viewBox="0 0 128 128" fill="none" xmlns="http://www.w3.org/2000/svg">
<path d="M107.7 24.07C99.3467 20.2457 90.5282 17.5326 81.4699 16C80.2304 18.2159 79.1088 20.4957 78.1099 22.83C68.461 21.376 58.6488 21.376 48.9999 22.83C48.0005 20.496 46.8789 18.2161 45.6399 16C36.5758 17.5455 27.7515 20.2651 19.3899 24.09C2.7899 48.65 -1.7101 72.6 0.539904 96.21C10.2613 103.393 21.1423 108.855 32.7099 112.36C35.3146 108.857 37.6194 105.14 39.5999 101.25C35.8382 99.8451 32.2076 98.1117 28.7499 96.07C29.6599 95.41 30.5499 94.73 31.4099 94.07C41.4709 98.8014 52.4519 101.255 63.5699 101.255C74.6879 101.255 85.6689 98.8014 95.7299 94.07C96.5999 94.78 97.4899 95.46 98.3899 96.07C94.9256 98.115 91.2882 99.8517 87.5199 101.26C89.498 105.149 91.8029 108.862 94.4099 112.36C105.987 108.869 116.877 103.409 126.6 96.22C129.24 68.84 122.09 45.11 107.7 24.07ZM42.4499 81.69C36.1799 81.69 30.9999 76 30.9999 69C30.9999 62 35.9999 56.26 42.4299 56.26C48.8599 56.26 53.9999 62 53.8899 69C53.7799 76 48.8399 81.69 42.4499 81.69ZM84.6899 81.69C78.4099 81.69 73.2499 76 73.2499 69C73.2499 62 78.2499 56.26 84.6899 56.26C91.1299 56.26 96.2299 62 96.1199 69C96.0099 76 91.0799 81.69 84.6899 81.69Z" fill="black"/>
</svg>
